<?xml version="1.0" standalone="no"?>
<!DOCTYPE svg PUBLIC "-//W3C//DTD SVG 20010904//EN"
 "http://www.w3.org/TR/2001/REC-SVG-20010904/DTD/svg10.dtd">
<svg version="1.0" xmlns="http://www.w3.org/2000/svg"
 width="309.000000pt" height="118.000000pt" viewBox="0 0 309.000000 118.000000"
 preserveAspectRatio="xMidYMid meet">

<g transform="translate(0.000000,118.000000) scale(0.100000,-0.100000)"
fill="#000000" stroke="none">
<path d="M2002 1048 c-9 -9 -12 -97 -12 -335 l0 -323 65 0 65 0 0 220 0 220
246 -208 c135 -114 254 -207 263 -207 14 0 17 21 22 160 4 88 7 231 8 318 l1
157 -65 0 -65 0 0 -195 c0 -107 -3 -195 -7 -195 -5 1 -113 91 -242 200 -129
110 -242 200 -251 200 -9 0 -21 -5 -28 -12z"/>
<path d="M360 715 l0 -335 327 2 327 3 15 47 c24 79 29 78 -265 78 l-254 0 0
75 0 75 229 0 c248 0 243 -1 256 58 13 61 9 62 -251 62 l-234 0 0 70 0 70 245
0 245 0 16 25 c9 14 17 42 18 63 l1 37 -337 3 -338 2 0 -335z"/>
<path d="M908 213 l-38 -4 0 -54 0 -53 41 -4 c22 -2 43 0 45 4 3 4 -13 8 -35
8 -34 0 -41 3 -41 20 0 16 7 20 38 21 l37 2 -35 6 c-50 9 -55 41 -6 41 20 0
36 5 36 10 0 6 -1 9 -2 8 -2 -1 -20 -3 -40 -5z"/>
<path d="M1302 204 c-44 -30 -18 -114 35 -114 22 0 53 39 53 65 0 26 -31 65
-53 65 -7 0 -23 -7 -35 -16z m69 -25 c16 -30 -3 -69 -34 -69 -29 0 -47 17 -47
45 0 45 60 63 81 24z"/>
<path d="M1732 204 c-44 -30 -18 -114 35 -114 22 0 53 39 53 65 0 26 -31 65
-53 65 -7 0 -23 -7 -35 -16z m68 -24 c14 -26 5 -57 -20 -70 -37 -20 -78 48
-48 78 19 19 56 14 68 -8z"/>
<path d="M1006 183 c9 -15 21 -41 25 -58 6 -26 7 -27 8 -6 1 13 12 39 27 58
14 18 21 33 15 33 -5 0 -18 -12 -28 -26 l-19 -25 -14 25 c-7 14 -18 26 -23 26
-5 0 -1 -12 9 -27z"/>
<path d="M1120 155 l0 -55 48 2 c43 1 44 2 10 5 -29 3 -38 9 -38 23 0 14 9 20
33 23 l32 4 -32 1 c-18 1 -33 7 -33 12 0 6 0 13 0 18 -1 4 16 10 37 13 38 6
38 6 -9 8 l-48 1 0 -55z"/>
<path d="M1431 153 c1 -32 4 -46 6 -31 3 22 10 28 36 31 l32 4 -32 1 c-25 2
-33 7 -33 21 0 15 8 21 38 24 l37 4 -42 1 -43 2 1 -57z"/>
<path d="M1582 153 l1 -58 6 45 6 45 29 -42 c16 -24 33 -43 37 -43 5 0 8 26 7
58 -1 49 -2 51 -5 15 -2 -24 -7 -43 -11 -43 -4 0 -18 18 -32 40 -14 22 -28 40
-32 40 -5 0 -7 -26 -6 -57z"/>
<path d="M1860 155 c0 -30 3 -55 8 -55 4 0 7 25 7 55 0 30 -3 55 -7 55 -5 0
-8 -25 -8 -55z"/>
<path d="M1920 155 l0 -55 39 0 c34 0 40 4 50 30 17 49 -3 80 -51 80 l-38 0 0
-55z m76 21 c10 -41 -4 -66 -37 -66 -28 0 -29 2 -29 45 0 43 1 45 30 45 23 0
31 -5 36 -24z"/>
<path d="M2056 158 c-22 -50 -26 -83 -5 -45 13 22 69 24 69 2 0 -8 4 -15 10
-15 5 0 1 23 -10 50 -11 28 -20 53 -20 55 0 3 -5 5 -10 5 -6 0 -21 -24 -34
-52z m47 2 c4 -15 0 -20 -14 -20 -20 0 -23 8 -13 34 7 20 20 13 27 -14z"/>
</g>
</svg>
